<svg id="Layer_1" data-name="Layer 1" xmlns="http://www.w3.org/2000/svg" viewBox="0 0 1000 1000"><path d="M568.42,578.88c0,1.7.85,2.54,1.69,2.54s1.7,0,1.7-.84L837.91,407.4a25.34,25.34,0,0,1,15.2-5.09h58.28a14.12,14.12,0,0,1,15.2,15.21V529c0,13.51-3.39,21.14-15.2,28.72l-70.94,42.36a3.14,3.14,0,0,1-2.54.85c-.85,0-1.7-.85-1.7-3.39V467.37c0-1.7-.84-2.54-1.69-2.54s-1.7,0-1.7.84L638.56,592.39a26.1,26.1,0,0,1-15.21,4.24H494.89a14.12,14.12,0,0,1-15.2-15.21V420.91c0-.85-.85-2.54-1.7-2.54s-1.69,0-1.69.84L347.93,496.93c-1.69.85-1.69,1.69-1.69,1.69,0,.85,0,.85.85,1.7l91.22,91.22a6.41,6.41,0,0,1,1.7,3.39c0,.85-1.7,1.7-2.54,1.7h-82.8a20.55,20.55,0,0,1-15.21-4.24l-55.73-55.73c-.85-.85-.85-.85-1.7-.85s-.84,0-1.69.85l-92.92,55.73a26.1,26.1,0,0,1-15.21,4.24H88.61a14.12,14.12,0,0,1-15.2-15.21V471.65c0-13.51,3.39-21.13,15.2-28.71l70.94-43.07a2.61,2.61,0,0,1,1.7-.85c.84,0,1.69.85,1.69,3.39V548.33c0,1.7.85,2.54,1.7,2.54a3.1,3.1,0,0,0,2.54-.84L407.9,404.71A27,27,0,0,1,424,400.48h130.1a14.12,14.12,0,0,1,15.21,15.2v163Z"/></svg>