<svg xmlns="http://www.w3.org/2000/svg" xmlns:xlink="http://www.w3.org/1999/xlink" width="1024" zoomAndPan="magnify" viewBox="0 0 768 511.49999" height="682" preserveAspectRatio="xMidYMid meet" version="1.0"><defs><clipPath id="4feb1d5753"><path d="M 0.375 0 L 767.625 0 L 767.625 511 L 0.375 511 Z M 0.375 0 " clip-rule="nonzero"/></clipPath><clipPath id="f5f1fbcd64"><path d="M 282.355469 153.300781 L 485.410156 153.300781 L 485.410156 357.851562 L 282.355469 357.851562 Z M 282.355469 153.300781 " clip-rule="nonzero"/></clipPath></defs><g clip-path="url(#4feb1d5753)"><path fill="#ffffff" d="M 0.375 0 L 767.625 0 L 767.625 511 L 0.375 511 Z M 0.375 0 " fill-opacity="1" fill-rule="nonzero"/><path fill="#ffffff" d="M 0.375 0 L 767.625 0 L 767.625 511 L 0.375 511 Z M 0.375 0 " fill-opacity="1" fill-rule="nonzero"/></g><g clip-path="url(#f5f1fbcd64)"><path fill="#ff751f" d="M 455.992188 183.085938 C 436.886719 163.960938 411.480469 153.40625 384.410156 153.40625 C 328.625 153.40625 283.226562 198.796875 283.207031 254.601562 C 283.207031 272.433594 287.859375 289.851562 296.714844 305.191406 L 282.355469 357.628906 L 336.007812 343.554688 C 350.792969 351.621094 367.433594 355.863281 384.367188 355.875 L 384.410156 355.875 C 440.179688 355.875 485.589844 310.472656 485.601562 254.679688 C 485.601562 227.636719 475.097656 202.222656 455.984375 183.085938 Z M 384.410156 338.789062 L 384.378906 338.789062 C 369.292969 338.789062 354.476562 334.726562 341.5625 327.0625 L 338.492188 325.234375 L 306.652344 333.585938 L 315.144531 302.546875 L 313.144531 299.363281 C 304.722656 285.976562 300.28125 270.496094 300.292969 254.601562 C 300.3125 208.230469 338.046875 170.492188 384.4375 170.492188 C 406.90625 170.492188 428.023438 179.257812 443.90625 195.164062 C 459.789062 211.058594 468.523438 232.191406 468.515625 254.671875 C 468.496094 301.050781 430.757812 338.789062 384.398438 338.789062 Z M 430.546875 275.796875 C 428.023438 274.535156 415.589844 268.414062 413.269531 267.578125 C 410.945312 266.726562 409.269531 266.3125 407.582031 268.839844 C 405.898438 271.375 401.050781 277.070312 399.574219 278.753906 C 398.101562 280.441406 396.628906 280.652344 394.09375 279.382812 C 391.566406 278.117188 383.417969 275.441406 373.753906 266.828125 C 366.242188 260.125 361.164062 251.84375 359.6875 249.308594 C 358.214844 246.773438 359.535156 245.410156 360.800781 244.148438 C 361.929688 243.019531 363.324219 241.191406 364.597656 239.714844 C 365.859375 238.242188 366.28125 237.179688 367.121094 235.496094 C 367.96875 233.808594 367.542969 232.335938 366.910156 231.0625 C 366.273438 229.800781 361.222656 217.347656 359.113281 212.289062 C 357.0625 207.363281 354.972656 208.027344 353.425781 207.949219 C 351.953125 207.875 350.265625 207.855469 348.582031 207.855469 C 346.894531 207.855469 344.15625 208.484375 341.835938 211.015625 C 339.511719 213.550781 332.988281 219.671875 332.988281 232.113281 C 332.988281 244.554688 342.046875 256.578125 343.320312 258.277344 C 344.582031 259.960938 361.152344 285.5 386.519531 296.457031 C 392.546875 299.0625 397.261719 300.617188 400.9375 301.789062 C 406.996094 303.71875 412.511719 303.445312 416.863281 302.789062 C 421.71875 302.0625 431.820312 296.667969 433.929688 290.761719 C 436.039062 284.855469 436.039062 279.796875 435.402344 278.734375 C 434.765625 277.675781 433.082031 277.046875 430.554688 275.777344 Z M 430.546875 275.796875 " fill-opacity="1" fill-rule="evenodd"/></g></svg>